<svg width="439" height="263" viewBox="0 0 439 263" fill="none" xmlns="http://www.w3.org/2000/svg">
<path d="M291.975 135.192H325.63C331.013 143.291 334.928 149.061 340.585 157.082C335.158 164.3 329.819 171.377 324.494 178.502H292.768C287.581 171.567 282.232 164.472 276.57 156.969M308.316 139.465C303.911 145.337 299.781 150.789 295.592 156.402C297.716 159.279 298.528 160.424 301.866 164.941C304.082 167.584 304.503 168.254 308.365 173.016C315.314 164.183 315.382 164.183 321.959 156.074" fill="#1D1D1B"/>
<path d="M147.703 85.697C159.541 85.697 170.185 85.697 181.436 85.697C186.256 93.2089 190.69 99.5169 196.361 107.538C190.934 114.756 185.698 121.73 180.369 128.86H148.432C143.245 121.925 138.008 114.942 132.346 107.445M164.092 89.9399C159.688 95.8123 155.557 101.264 151.368 106.877C153.487 109.755 154.305 110.9 157.642 115.417C159.859 118.059 160.28 118.73 164.141 123.491C171.09 114.658 171.159 114.658 177.736 106.549" fill="#1D1D1B"/>
<path d="M217.816 128.63C212.481 128.63 206.594 128.718 201.598 128.718C201.642 114.379 201.642 100.417 201.642 85.7019H217.869V101.406C222.372 95.4845 226.155 90.4194 229.644 85.697H248.979C243.415 93.155 238.247 100.041 233.138 106.877C238.423 113.953 243.865 121.294 249.463 128.899H230.202C226.473 123.898 222.401 118.48 217.825 112.392" fill="#1D1D1B"/>
<path d="M146.661 178.634H127.575C123.611 173.447 119.412 167.975 114.93 162.079C114.93 169.532 114.93 171.543 114.93 178.526H99.3919V135.251C109.346 135.251 119.065 135.285 129.302 135.285C134.583 142.362 140.446 150.265 146.059 157.767C138.048 157.811 136.863 157.767 131.328 157.88C136.614 165 141.424 171.558 146.661 178.634ZM114.758 155.144H124.751C121.326 150.568 118.252 146.507 114.758 141.931V155.144Z" fill="#1D1D1B"/>
<path d="M236.143 178.526H206.648V135.168H236.794C244.095 144.662 244.022 144.662 252.502 155.785C245.862 164.976 242.147 169.84 236.143 178.526ZM221.75 142.102V170.408C221.75 171.215 221.75 171.112 221.75 171.352C221.75 171.489 221.682 171.744 222.107 171.083C225.832 166.189 229.536 161.256 233.265 156.348" fill="#1D1D1B"/>
<path d="M127.82 128.909H112.752V112.211C108.411 118.01 104.379 123.335 100.18 128.904H80.9425C91.4591 114.223 102.612 100.134 113.036 85.697H127.776C127.82 99.9916 127.82 114.188 127.82 128.909Z" fill="#1D1D1B"/>
<path d="M298.249 128.874C309.382 113.968 319.909 99.9182 330.572 85.6725C334.977 85.6725 339.748 85.7019 344.798 85.7019V128.865H329.794V112.544C325.219 118.627 321.421 123.687 317.56 128.874C311.609 128.923 305.516 128.874 298.249 128.874Z" fill="#1D1D1B"/>
<path d="M195.97 178.526C190.528 178.526 185.111 178.526 179.649 178.526V161.829C175.309 167.677 171.252 173.055 167.151 178.526H147.904L164.885 155.036H179.566V135.163H195.98L195.97 178.526Z" fill="#1D1D1B"/>
<path d="M281.772 111.967C277.005 118.196 272.807 123.668 268.799 128.904H249.713C255.585 120.976 261.174 113.479 266.885 105.742H281.586V85.697H296.918C296.918 100.129 296.918 114.462 296.918 128.899H282.007" fill="#1D1D1B"/>
<path d="M271.887 135.163V178.526H257.024V135.168" fill=" #1D1D1B"/>
<path d="M223.208 0.428398L0.538285 133.484L0.513816 117.213L196.2 0.369673L223.208 0.428398Z" fill="#1D1D1B"/>
<path d="M215.305 0.443079L438.137 133.225L438.142 116.953L242.314 0.350098L215.305 0.443079Z" fill="#1D1D1B"/>
<path d="M215.574 262.19L438.132 128.948L438.171 145.215L242.588 262.224L215.574 262.19Z" fill="#1D1D1B"/>
<path d="M223.257 262.18L0.523603 129.237L0.504028 145.508L196.249 262.249L223.257 262.18Z" fill="#1D1D1B"/>
</svg>
