<svg width="951" height="568" viewBox="0 0 951 568" fill="none" xmlns="http://www.w3.org/2000/svg">
<path d="M950.2 314.7C939.2 321.3 929.3 327.2 919.3 333.2C909.3 339.1 899.2 344.8 889.3 350.9C878 357.8 867 365.1 855.7 371.9C844.8 378.4 833.4 384.2 822.5 390.8C806.9 400.2 791.5 410.1 775.9 419.4C765 425.9 753.5 431.5 742.6 438.1C727 447.5 711.9 457.8 696 466.8C681.5 475 667.4 483.8 653.2 492.4C637 502.2 620.1 511 604.2 521.3C594.8 527.4 584.8 532.5 575.1 538.1C560.8 546.5 546.5 555 532.2 563.6C530.8 564.4 529.8 565.9 528.4 567.3C495.9 567.3 463.2 567.1 430.5 567.4C423.6 567.5 418.5 564.1 413.1 561.2C400.9 554.6 389 547.1 377.1 539.9C361.5 530.4 346.1 520.6 330.5 511.3C319.6 504.8 308.2 499.1 297.2 492.6C281.6 483.2 266.4 473 250.6 463.9C236.2 455.6 222.1 446.8 207.7 438.4C191.3 428.8 174.8 419.6 158.8 409.4C149.4 403.4 139.1 398.6 129.8 392.5C113.3 381.6 95.4 373 79 362C69.7 355.8 59.4 351.1 50 345.1C34.6 335.2 18.1 327.3 3.5 316.2C2.7 315.6 1.3 315.8 0 315.6C0 294.3 0 273.3 0 252.4C10.2 246.4 20.3 240.6 30.2 234.6C41.2 228 51.9 221 62.9 214.5C74.2 207.8 85.8 201.7 97.1 195.1C107.5 189.1 117.8 182.9 128 176.6C143.2 167.3 158.3 157.8 173.6 148.5C180.2 144.5 187 140.8 193.7 136.9C214.1 125 234.5 113.1 254.4 100.2C264.7 93.5 276.1 88.4 286.7 82.1C302.4 72.8 317.8 63 333.3 53.5C342.2 48.1 351.1 42.6 360.2 37.4C372.4 30.5 384.4 23.5 396 15.8C402.4 11.6 409.9 9.19999 416.3 4.89999C421.6 1.29999 426.8 0 433 0C464.1 0.2 495.1 0.0999908 525.5 0.0999908C543.2 10.3 560.4 19.9 577.3 30C595.6 41 613.5 52.5 631.8 63.5C643 70.3 654.7 76.4 666 82.9C676.4 88.9 686.6 95.1 696.9 101.3C706.9 107.3 716.8 113.3 726.7 119.4C738.3 126.5 749.7 133.9 761.4 140.8C772.4 147.2 783.8 152.9 794.7 159.4C810 168.5 825.1 178.1 840.3 187.4C845.9 190.8 851.8 193.8 857.4 197.1C874.4 207.1 891.6 216.9 908.1 227.8C917.5 233.9 927.5 239 937.2 244.6C941.6 247.1 945.8 249.9 950.1 252.6C950.2 273.2 950.2 293.9 950.2 314.7ZM474.6 560C481.5 556.2 487.7 553.5 492.9 549.6C498.9 545.1 505.8 542.5 512.1 538.7C527.4 529.6 542.4 519.9 557.7 510.7C574.3 500.7 591 491 607.5 480.9C622.6 471.6 638.4 463.4 653.7 454.4C669.7 444.9 685.4 435 701.4 425.4C712 419.1 722.9 413.3 733.5 406.9C748.8 397.7 763.9 388.2 779.1 378.8C795.5 368.6 812.7 359.7 829 349.1C843.9 339.5 859.8 331.5 875.1 322.5C891.1 313 906.9 303.2 922.8 293.5C927.9 290.4 933.1 287.2 939.3 283.4C930.7 278.6 923 274.5 915.6 270C900 260.6 884.6 250.7 869 241.4C858.1 234.9 846.7 229 835.8 222.6C820.8 213.7 806.1 204.3 791.1 195.4C777.1 187.1 763.1 179 749.3 170.5C733.1 160.5 716.5 151.5 700.2 141.8C689.9 135.6 679.4 129.8 669.4 123.3C653.5 112.9 636.9 103.8 620.5 94.3C606.1 85.9 592.1 77 577.6 68.8C561.8 59.8 546.6 49.5 531 40.1C524.1 35.9 516.7 32.6 509.7 28.5C498.1 21.6 486.6 14.3 475.4 7.39999C455.9 18.3 437.8 30.2 418.9 40.8C408.8 46.4 398.6 52.2 389 58.5C379.2 64.9 369.1 70.9 359.2 77C349.1 83.2 339.1 89.9 328.2 95C321.2 98.3 314.7 102.6 308.1 106.5C297.8 112.6 287.4 118.7 277.2 125C263 133.8 248.8 142.4 234.4 150.6C216.9 160.5 200 171.6 182.7 181.9C173.4 187.5 163.8 192.4 154.5 197.9C138.9 207.3 123.6 217.3 107.9 226.6C97 233.1 85.6 238.8 74.7 245.4C59 254.7 43.6 264.5 28.1 274C22.7 277.3 17.3 280.5 11 284.2C23.2 291.3 34.2 297.5 45.1 303.9C54.1 309.2 63.3 314.3 72 320C87.9 330.5 104.5 339.5 120.9 349C135.3 357.4 149.3 366.3 163.8 374.5C179.6 383.5 194.7 393.9 210.4 403.2C221.3 409.7 232.8 415.3 243.7 421.9C259.4 431.2 274.7 441.1 290.3 450.5C299.5 456.1 309.3 460.8 318.4 466.7C334.3 477 350.9 486.2 367.3 495.7C381.7 504 396.1 512.4 410.1 521.4C431 534.7 453.7 545.9 474.6 560Z" fill="white"/>
<path d="M390.3 278.6C366.8 278.6 344.4 278.6 322.1 278.6C310.9 263.8 299.8 248.9 288.5 234C288.5 233.3 288.2 232.3 288.5 231.7C299.3 216.6 310.2 201.6 320.9 186.8C345.1 186.8 368.6 186.8 391.3 186.8C402.7 202.1 413.8 216.9 425.3 232.2C413.4 247.9 401.6 263.6 390.3 278.6ZM328.9 232.5C338.2 245 347.2 257.1 356.3 269.4C365.6 257 374.4 245.3 383 234C383 232.7 383.3 231.6 382.9 231.1C375 220.3 367 209.5 359 198.8C358.1 197.6 356.6 196.9 355.5 196C346.3 208.5 337.6 220.5 328.9 232.5Z" fill="white"/>
<path d="M632.3 293.6C657.4 293.6 681.3 293.6 705.1 293.6C714.8 309.8 729.3 322.5 736.8 340C725.3 355.3 714.2 370.1 702.9 385.2C680.6 385.2 658 385.2 635.2 385.2C624.2 370.5 613.1 355.7 601.1 339.8C602.9 336.7 604.5 332.8 607 329.4C615 318.6 623.3 308 631.4 297.3C632.1 296.6 632 295.2 632.3 293.6ZM697.3 337.9C691.7 331.4 686.2 326 681.9 319.7C677.7 313.7 674.4 307.2 668.4 302.7C659.1 315.1 650.3 326.7 641.4 338.6C645.9 344.7 650 351.1 654.7 356.7C659.4 362.3 662 370.3 670.4 373.9C679.2 362.1 687.9 350.4 697.3 337.9Z" fill="white"/>
<path d="M435.6 186.8C447 186.8 458.1 186.8 470 186.8C470 197.5 470 208 470 220.6C479.5 208 487.7 197.1 495.1 187.1C509 187.1 521.7 187.1 536.1 187.1C524.3 202.9 513.2 217.7 502.4 232.2C513.6 247.2 524.5 262 536.4 278.1C521.6 278.1 508.6 278.1 495.5 278.1C487.6 267.5 479.6 256.8 469.9 243.9C469.9 254.7 470.1 262.8 469.8 271C469.7 273.6 468.4 276.1 467.7 278.5C456.4 278.5 446.1 278.5 435.5 278.5C435.6 248.1 435.6 218 435.6 186.8Z" fill="white"/>
<path d="M319.2 385.5C304.8 385.5 292.4 385.5 278.7 385.5C270.3 374.5 261.4 362.9 251.9 350.4C250.1 362.2 251.7 373.4 250.8 385.1C240.3 385.1 229.8 385.1 219 385.1C219 354.8 219 324.6 219 294C240.1 294 261.1 294 282.8 294C294 309 305.7 324.6 317.6 340.5C308.4 341.6 298.2 340 286.7 341.5C297.9 356.6 308.1 370.5 319.2 385.5ZM251.5 335.5C257.8 336.1 264.4 336.1 272.6 335.3C265.3 325.6 258.9 317.1 251.5 307.4C251.5 317.5 251.5 326 251.5 335.5Z" fill="white"/>
<path d="M511.1 385.3C490.3 385.3 469.3 385.3 448 385.3C448 354.9 448 324.8 448 294.2C468.6 294.2 489.5 294.2 511.9 294.2C523.6 306.7 532.5 323.3 545.2 337.9C535.4 354.6 521.6 368.8 511.1 385.3ZM504.4 339.1C500.9 334.1 497.9 327.9 493.2 323.4C488.6 319 487.3 311.5 480 308.9C480 329.3 480 349.1 480 368.9C480 369.3 480.2 369.6 480.4 369.9C480.6 370.2 481 370.4 480.8 370.3C488.7 359.9 496.5 349.5 504.4 339.1Z" fill="white"/>
<path d="M275.6 278.4C264.9 278.4 254.7 278.4 243.6 278.4C243.6 266.9 243.6 255.5 243.6 243C234.4 255.3 226 266.4 217.1 278.2C204.6 278.2 191.1 278.2 176.4 278.2C198.7 247.1 222.2 217.4 244.3 186.8C254.7 186.8 264.9 186.8 275.5 186.8C275.6 217.1 275.6 247.2 275.6 278.4Z" fill="white"/>
<path d="M647.1 278.2C670.7 246.6 692.9 217 715.5 186.8C724.8 186.8 735 186.8 745.7 186.8C745.7 217.2 745.7 247.6 745.7 278.3C735.3 278.3 725 278.3 713.9 278.3C713.9 267.8 713.9 257.3 713.9 243.7C704.2 256.6 696.3 267.1 688.1 278.1C675.5 278.2 662.5 278.2 647.1 278.2Z" fill="white"/>
<path d="M394.2 385.6C393 384.4 391.9 383.3 390.2 381.6C390.2 371.8 390.2 361.6 390.2 350.1C381 362.5 372.4 373.9 363.7 385.5C351 385.5 337.7 385.5 322.9 385.5C335.2 368.5 346.9 352.3 358.9 335.7C369.1 335.7 379.3 335.7 390 335.7C390 321.7 390 308.2 390 294C401.8 294 413.1 294 424.8 294C424.8 323.3 424.8 352.7 424.8 382.1C423.7 383.2 422.6 384.4 421.4 385.5C412.4 385.6 403.3 385.6 394.2 385.6Z" fill="white"/>
<path d="M641.5 187C641.5 217.6 641.5 247.6 641.5 278.2C631.2 278.2 621 278.2 609.9 278.2C608.7 273.2 609.6 267.5 609.4 262C609.2 256.3 609.4 250.5 609.4 242.5C599.3 255.7 590.4 267.3 581.9 278.4C568.3 278.4 555.6 278.4 541.4 278.4C553.9 261.6 565.7 245.7 577.8 229.3C587.7 229.3 597.9 229.3 609 229.3C609 215.1 609 201.2 609 187C620 187 630.2 187 641.5 187Z" fill="white"/>
<path d="M589 385.4C578.4 385.4 568.1 385.4 557.5 385.4C557.5 355.1 557.5 325 557.5 294.1C562.1 293 567.4 293.8 572.6 293.6C577.9 293.5 583.3 293.6 589 293.6C589 324 589 354.1 589 385.4Z" fill="white"/>
</svg>
