<?xml version="1.0" standalone="no"?>
<!DOCTYPE svg PUBLIC "-//W3C//DTD SVG 20010904//EN"
 "http://www.w3.org/TR/2001/REC-SVG-20010904/DTD/svg10.dtd">
<svg version="1.0" xmlns="http://www.w3.org/2000/svg"
 width="500.000000pt" height="500.000000pt" viewBox="0 0 500.000000 500.000000"
 preserveAspectRatio="xMidYMid meet">
<metadata>
Created by potrace 1.14, written by Peter Selinger 2001-2017
</metadata>
<g transform="translate(0.000000,500.000000) scale(0.100000,-0.100000)"
fill="#000000" stroke="none">
<path d="M3409 4788 c-5 -10 -61 -88 -125 -175 -63 -87 -122 -167 -130 -178
-8 -11 -56 -76 -107 -145 -50 -69 -166 -226 -257 -349 -91 -123 -170 -229
-175 -235 -6 -6 -22 -27 -35 -46 -13 -19 -27 -37 -30 -40 -4 -3 -11 -12 -16
-21 -5 -9 -21 -32 -36 -50 -15 -19 -48 -63 -75 -99 -26 -36 -53 -72 -60 -80
-7 -8 -34 -44 -60 -80 -26 -36 -53 -72 -60 -80 -6 -8 -69 -91 -139 -184 -70
-93 -205 -273 -301 -400 -96 -127 -254 -337 -351 -466 -97 -129 -180 -239
-185 -245 -5 -5 -100 -134 -213 -285 -113 -151 -210 -282 -217 -290 -7 -8 -37
-49 -67 -90 -30 -41 -58 -79 -63 -85 -13 -18 -72 -96 -174 -235 -169 -230
-206 -280 -313 -430 -57 -80 -106 -147 -110 -150 -3 -3 -13 -16 -22 -30 -10
-14 -31 -45 -48 -69 -17 -24 -28 -46 -25 -49 3 -3 463 -6 1021 -7 l1015 0 132
175 c72 96 135 180 139 185 60 79 475 629 520 690 4 6 18 24 31 40 13 17 135
178 270 358 179 238 247 322 248 305 0 -12 1 -412 2 -888 l2 -865 803 0 803 0
-3 2305 -3 2305 -788 0 c-736 0 -790 -1 -798 -17z"/>
</g>
</svg>
